<svg xmlns="http://www.w3.org/2000/svg" id="TrelloSVG" viewBox="0 0 260 80"><defs><linearGradient id="linearGradient-1" x1="50%" x2="50%" y1="0%" y2="100%"><stop offset="0%" stop-color="#0091E6"/><stop offset="100%" stop-color="#0079BF"/></linearGradient></defs><g id="Page-1" fill="none" fill-rule="evenodd"><g id="Trello-Logo---White" fill="url(#linearGradient-1)" transform="translate(-362 -160)"><g id="Logo" transform="translate(362 160)"><path id="Type" d="M212.5 52.53c-3.76 1.53-6.72 6.81-11.22 9.82-.28.19-.56.28-.75.28-.37 0-.83-.37-.83-2.05 0-5.78 1.86-8.57 3.44-12.67 5.49-14.26 14.9-26.46 23.27-39.79a6.18 6.18 0 0 0 1.02-3.35c0-1.03-.37-1.87-.84-2.9-.37-.83-2.04-1.58-3.9-1.58-1.03 0-1.96.1-3.17.1-4.37 0-5.3 6.43-6.33 8.1-6.98 11.84-14.98 26.47-19.08 36.8-.9 2.33-1.87 4.65-2.6 7.03-4.05 1.17-7.08 6.86-11.82 10.03-.28.19-.56.28-.75.28-.37 0-.84-.37-.84-2.05 0-5.78 1.86-8.57 3.45-12.67 5.49-14.26 14.89-26.46 23.26-39.79a6.18 6.18 0 0 0 1.03-3.35c0-1.03-.37-1.87-.84-2.9-.37-.83-2.05-1.58-3.9-1.58-1.03 0-1.96.1-3.17.1-4.38 0-5.3 6.43-6.33 8.1-6.98 11.84-14.99 26.47-19.08 36.8l-1 2.53-.3.18c-4.75 2.8-8.75 7.73-14.52 11.09-1.12.65-4.56 3.07-7.36 3.07-.65 0-1.2-.18-1.76-.46-.84-.38-1.68-2.15-1.68-2.7 0-.47.1-.56 1.02-1.12 8.2-4.94 14.9-12.02 20.67-19.1 2.14-2.61 4.93-7.74 4.93-11.46 0-2.43-.84-5.22-3.72-6.25a19.2 19.2 0 0 0-6.24-1.12c-4.93 0-8.56 2.24-10.61 4.38-2.08 2.23-4.1 4.52-5.97 6.89-1.96-1.7-4.72-2.41-7.34-2.41-3.07 0-8.84 3.82-11.82 6.05-.46.38-.74.56-.93.56-.1 0-.19-.1-.19-.28 0-.1.19-.93.19-2.42 0-1.3-.28-2.98-1.49-5.03-.28-.47-1.95-1.5-4-1.5-2.51 0-4.84 1.22-4.84 2.52 0 .93.84 1.3.84 2.15 0 .46-.38 2.6-.93 4.65a243.54 243.54 0 0 1-5.59 17.7c-1.12 3.27-4.84 6.16-4.84 9.7 0 1.12.75 2.6 1.77 3.73 1.68 1.86 2.7 2.51 4.19 2.51.65 0 1.4-.18 2.05-.74a7.11 7.11 0 0 0 2.5-4.1c2.43-11 9.4-18.45 17.13-23.4 2.61-1.67 6.15-3.44 6.61-3.44.48 0 1.23.22 1.98.44a45.5 45.5 0 0 0-5.05 11.2c-.37 1.31-.56 2.52-.56 3.83 0 2.14.47 4.38 1.21 6.52 1.03 2.98 2.7 5.6 5.03 6.8 4.28 2.24 7.35 3.45 10.14 3.45 1.59 0 2.8-.28 4.1-1.02 6.12-3.47 9.87-6.1 12.57-8.43.08 2.36.54 3.68 2.23 5.44a14.9 14.9 0 0 0 7.72 4.1c.56.1 1.12.19 1.68.19 3.94 0 7.73-3.2 10.65-6.38.34.69.83 1.35 1.54 2.1a14.9 14.9 0 0 0 7.72 4.1c.56.09 1.12.18 1.68.18 4.61 0 9.03-4.4 12.08-8 1.02 2.1 3.86 4.19 7.28 5.86a7.1 7.1 0 0 0 3.07.74c4 0 6.89-3.26 9.12-5.68 5.77-6.34 8.94-14.16 11.36-24.04.18-.75.46-1.03.83-1.03.93 0 2.14 0 3.45-.18 2.5-.37 4.46-1.21 6.8-1.59 1.39-.28 1.2-.74 2.5-1.2.93-.38 1.68-.75 1.68-1.68 0-1.59-2.89-3.27-7.26-3.27-3.44 0-5.5.28-6.89.28-2.14 0-2.7-.65-4.1-4.28 0 0 1.4 3.63 0 0a4.08 4.08 0 0 0-1.39-1.87 9.76 9.76 0 0 0-6.33-2.23c-4.65 0-8.65 4.75-11.45 8.76-.65.93-1.58 1.67-2.23 2.7-3.83 5.76-7.5 12.25-7.96 19.25zm-119-31.74c2.33 0 3.63-.18 3.91-.18.28 0 .47.09.47.37 0 .19-.1.47-.75 1.86-5.68 12.2-9.59 24.6-13.03 38.3-.1.37-.37 1.77-.37 3.17 0 1.3.37 2.7 1.67 3.44 2.52 1.5 4.56 2.15 5.96 2.15 2.05 0 3.07-1.3 3.07-3.45a31 31 0 0 1 .37-5.31c2.61-13.7 6.52-24.41 12.57-35.6 2.88-5.3 3.26-5.59 3.26-6.05 0-.19-.1-.47-.28-.75 3.72-.84 8.19-1.4 12.28-1.4.47 0 2.33.66 2.6.94.66.65 1.31 1.3 2.43 1.3.93 0 2.51-.65 3.07-1.02 1.3-.94 1.95-1.96 1.95-3.64 0-1.58-5.86-5.5-9.95-5.5-5.03 0-9.6.66-13.87 1.5-1.86.37-8.56 1.4-13.4 1.4-4.66 0-4.38-.66-6.33-.66-1.12 0-1.68.56-2.14 1.03-.47.46-.75 2.33-.75 4 0 .84 0 1.5.47 2.05 1.4 1.68 4.1 2.05 6.8 2.05 0 0-2.7 0 0 0zm68.97 7.55c0 .84-.28 1.4-1.4 3.17-1.12 1.77-.65 1.77-2.05 3.63a80.24 80.24 0 0 1-10.42 11.28c-1.21 1.11-1.4 1.11-1.58 1.11-.1 0-.28-.09-.28-.27 0-.28.1-.66 1.02-2.61 2.89-6.06 6.42-10.07 10.33-13.98 2.14-2.14 3.45-2.89 3.91-2.89.28 0 .47.1.47.56 0 0 0-.47 0 0zm71.57 2.42c.1 0 .18.1.28.28.1.28.28.56.74.93.37.28.37 1.59.37 2.61 0 9.04-5.11 16.5-10.14 24.04-1.12 1.68-1.77 1.96-2.33 1.96-.46 0-1.2-1.21-1.49-1.96a9 9 0 0 1-.46-2.7c0-7.27 6.89-18.08 11.45-24.04.74-1.02 1.3-1.12 1.58-1.12 0 0-.28 0 0 0z"/><path id="Board" d="M22.04 10.59a7.35 7.35 0 0 0-7.35 7.36v44.1a7.35 7.35 0 0 0 7.35 7.36H66.1a7.35 7.35 0 0 0 7.36-7.36v-44.1a7.35 7.35 0 0 0-7.36-7.36H22.04zm29.38 7.65a3.53 3.53 0 0 0-3.53 3.53v18.82a3.53 3.53 0 0 0 3.53 3.53h10.86a3.53 3.53 0 0 0 3.53-3.53V21.77a3.53 3.53 0 0 0-3.53-3.53H51.42zm-25.56 0a3.53 3.53 0 0 0-3.53 3.53v33.52a3.53 3.53 0 0 0 3.53 3.53h10.86a3.53 3.53 0 0 0 3.53-3.53V21.77a3.53 3.53 0 0 0-3.53-3.53H25.86z"/></g></g></g></svg>